<svg width="759" height="320" viewBox="0 0 759 320" fill="none" xmlns="http://www.w3.org/2000/svg">
<path d="M560.272 206.952L552.137 233.401L538.342 248.722L537.341 253.852L513.349 280.498L507.752 282.696L507.435 282.41L494.186 296.094L503.342 283.891L491.024 296.215L501 283.101L487.698 296.518L498.822 282.129L484.855 295.608L496.134 280.368L481.018 295.122L493.773 278.243L479.797 291.053L491.741 275.754L478.594 288.321L490.547 273.689L478.885 285.285L489.854 271.746L478.675 282.128L490.751 267.387L490.433 267.101L492.033 261.305L516.025 234.659L521.022 233.128L534.818 217.806L560.272 206.952ZM694.327 0L673.238 54.4877L634.063 155.7L691.465 161.203L722.341 164.163L696.334 181.066L657.768 206.131L726.94 249.31L758.938 269.285L721.217 269.329L607.304 269.462L611.393 291.726L590.087 295.639L583.652 260.604L581.306 247.831L594.292 247.816L683.47 247.711L631.875 215.503L617.452 206.5L631.708 197.234L658.521 179.806L617.771 175.9L603.546 174.537L608.704 161.209L631.947 101.155L588.296 149.36L576.978 161.858L570.317 146.368L554.882 110.474L550.763 152.177L548.811 171.928L533.257 159.6L512.712 143.318L526.498 179.736L533.678 198.703L513.922 194.122L464.586 182.682L469.479 161.579L499.059 168.437L478.566 114.299L464.678 77.61L495.423 101.976L531.156 130.296L537.457 66.5306L541.589 24.7175L558.186 63.3171L583.555 122.32L655.109 43.308L694.327 0Z" fill="#373ED8"/>
<path fill-rule="evenodd" clip-rule="evenodd" d="M309.071 219.628C317.384 219.628 324.456 221.674 330.324 225.758L330.931 226.189C336.149 229.971 340.377 235.026 343.621 241.372L343.742 241.614L327.066 249.037L326.88 248.662C325.1 245.169 322.705 242.447 319.701 240.522C316.26 238.316 312.294 237.214 307.833 237.214C302.934 237.214 298.533 238.6 294.671 241.365C290.833 244.113 287.854 247.961 285.738 252.883C283.642 257.761 282.597 263.264 282.597 269.381C282.597 275.659 283.64 281.301 285.734 286.3C287.846 291.343 290.82 295.295 294.655 298.127C298.519 300.981 302.926 302.413 307.833 302.413C312.057 302.413 315.885 301.285 319.285 299.033L319.812 298.673C322.599 296.711 325.018 294.066 327.07 290.748L327.197 290.538L343.988 298.012L343.876 298.234C340.414 304.97 335.73 310.205 329.815 313.962C323.479 317.987 316.203 320 307.957 320C299.215 320 291.463 317.862 284.672 313.588C277.873 309.309 272.576 303.352 268.766 295.692C264.944 288.008 263.03 279.243 263.03 269.381C263.03 259.688 264.963 251.072 268.822 243.515C272.668 235.983 278.062 230.129 285.021 225.93C291.981 221.73 299.989 219.628 309.071 219.628ZM194.122 245.367C201.086 245.367 206.421 247.581 210.234 252.011L210.569 252.411C214.197 256.864 216.032 263.165 216.032 271.361V318.266H197.826L197.827 276.187C197.827 272.086 196.778 268.781 194.649 266.328C192.484 263.833 189.509 262.582 185.831 262.582C181.599 262.582 178.131 263.937 175.514 266.646L175.207 266.975C172.801 269.643 171.607 273.19 171.607 277.548L171.607 318.266H153.401V247.098H171.607L171.607 256.751H174.343L174.738 256.098C176.766 252.745 179.426 250.124 182.733 248.218C186.027 246.319 189.815 245.367 194.122 245.367ZM247.193 247.098V318.266H228.988V247.098H247.193ZM139.314 247.098V318.266H121.109V247.098H139.314ZM22.2213 221.36L53.4984 268.888L53.8996 269.497H56.1016L56.5028 268.888L87.7788 221.36H105V318.266H86.6713L86.6722 258.993H83.8559L83.4534 259.59L62.3232 290.919H47.6675L26.4165 260.074L26.0129 259.488H23.2053L23.2042 318.266H5V221.36H22.2213ZM542.7 262.179V318.266H524.494V283.365L542.7 262.179ZM389.748 221.36C397.477 221.36 404.169 222.702 409.836 225.376C415.458 228.029 419.751 231.81 422.745 236.735C425.746 241.67 427.25 247.47 427.25 254.16C427.25 260.854 425.785 266.637 422.863 271.533C419.947 276.419 415.794 280.178 410.376 282.828C404.92 285.496 398.461 286.836 390.985 286.836H374.04L374.039 318.266H355.091V221.36H389.748ZM456.059 221.36L485.735 256.547L471.858 272.306L460.02 259.907L459.62 259.488H456.944L456.944 318.266H438.738V221.36H456.059ZM386.531 238.328H374.04V269.868H386.531C392.981 269.868 398.122 268.518 401.924 265.777C405.827 262.963 407.808 259.048 407.808 254.16C407.808 249.275 405.829 245.342 401.933 242.488C398.129 239.701 392.985 238.328 386.531 238.328ZM139.314 217.194V235.398H121.109V217.194H139.314ZM247.048 217.194V235.398H228.842V217.194H247.048Z" fill="#000111"/>
<path d="M4.21875 193V142.27H16.4883L30.9023 178.727H31.1133L45.5273 142.27H57.7969V193H48.3398V158.688H48.0234L34.3477 193H27.668L13.957 158.688H13.6758V193H4.21875ZM89.1211 193.879C74.0391 193.879 64.6523 183.789 64.6523 167.652V167.582C64.6523 151.445 74.1094 141.391 89.1211 141.391C104.168 141.391 113.59 151.48 113.59 167.582V167.652C113.59 183.789 104.203 193.879 89.1211 193.879ZM89.1211 184.879C97.5586 184.879 102.762 178.164 102.762 167.652V167.582C102.762 157 97.4531 150.391 89.1211 150.391C80.8242 150.391 75.4805 156.965 75.4805 167.582V167.652C75.4805 178.27 80.7891 184.879 89.1211 184.879ZM120.445 193V142.27H139.816C155.004 142.27 164.004 151.305 164.004 167.371V167.441C164.004 183.543 155.039 193 139.816 193H120.445ZM131.062 184.211H138.551C148.043 184.211 153.176 178.445 153.176 167.477V167.406C153.176 156.824 147.867 151.023 138.551 151.023H131.062V184.211ZM170.859 193V142.27H204.469V151.023H181.477V163.188H203.168V171.484H181.477V184.246H204.469V193H170.859ZM212.133 193V142.27H222.75V184.246H244.934V193H212.133ZM251.227 193V142.27H273.305C282.867 142.27 288.879 147.191 288.879 154.996V155.066C288.879 160.621 284.66 165.367 279.07 166.105V166.316C286.137 166.844 291.234 171.836 291.234 178.48V178.551C291.234 187.445 284.52 193 273.691 193H251.227ZM270.562 150.145H261.844V163.469H269.262C275.238 163.469 278.438 160.973 278.438 156.578V156.508C278.438 152.465 275.52 150.145 270.562 150.145ZM270.527 170.676H261.844V185.09H270.984C277.066 185.09 280.406 182.594 280.406 177.883V177.812C280.406 173.172 277.031 170.676 270.527 170.676ZM297.281 193V142.27H330.891V151.023H307.898V163.188H329.59V171.484H307.898V184.246H330.891V193H297.281ZM357.082 193.879C345.023 193.879 337.254 188.359 336.656 179.008L336.621 178.445H346.641L346.711 178.832C347.379 182.77 351.562 185.23 357.363 185.23C363.234 185.23 366.926 182.664 366.926 178.797V178.762C366.926 175.316 364.43 173.594 358.137 172.293L352.793 171.238C342.773 169.234 337.711 164.453 337.711 156.824V156.789C337.711 147.508 345.797 141.391 357.047 141.391C368.789 141.391 375.996 147.262 376.488 156.156L376.523 156.824H366.504L366.469 156.402C365.941 152.43 362.285 150.004 357.047 150.004C351.598 150.039 348.328 152.535 348.328 156.156V156.191C348.328 159.391 350.93 161.254 356.766 162.414L362.145 163.504C372.762 165.613 377.543 169.938 377.543 177.918V177.953C377.543 187.691 369.879 193.879 357.082 193.879ZM394.77 193V151.023H380.109V142.27H420.082V151.023H405.387V193H394.77Z" fill="#000111"/>
</svg>
