<svg xmlns="http://www.w3.org/2000/svg" xmlns:xlink="http://www.w3.org/1999/xlink" width="656" height="267" viewBox="0 0 656 267" fill="none">
<path d="M599.867 0L581.546 45.4148L547.513 129.774L597.381 134.361L624.204 136.828L601.611 150.917L568.106 171.807L628.2 207.797L655.999 224.446L623.229 224.482L524.265 224.594L527.818 243.15L509.308 246.412L503.717 217.21L501.68 206.564L512.961 206.551L590.435 206.464L545.611 179.619L533.081 172.115L545.467 164.392L568.761 149.866L533.359 146.611L521 145.474L525.482 134.366L545.674 84.3114L507.752 124.49L497.919 134.907L492.132 121.995L478.722 92.0786L475.144 126.838L473.449 143.3L459.935 133.025L442.087 119.454L454.064 149.808L460.301 165.616L443.139 161.798L400.277 152.262L404.528 134.674L430.225 140.39L412.422 95.2665L400.357 64.6869L427.067 84.9954L458.111 108.6L463.585 55.4524L467.174 20.6017L481.594 52.774L503.633 101.953L565.796 36.0967L599.867 0ZM483.405 172.491L476.339 194.537L464.353 207.307L463.485 211.583L442.642 233.792L437.779 235.624L430.255 229.124L422.732 222.625L424.122 217.794L444.965 195.585L449.307 194.309L461.292 181.539L483.405 172.491Z"   fill="#373ED8" >
</path>
<path d="M314.539 98.4229L314.539 131.732C314.539 140.211 316.885 148.663 321.97 155.598C322.578 156.425 323.215 157.235 323.879 158.016L323.879 168.148C318.264 163.26 313.743 157.253 310.655 150.51C307.563 157.253 303.04 163.26 297.427 168.148L297.427 158.016L297.564 157.858C303.77 150.468 306.771 141.064 306.771 131.574L306.771 98.4229L314.539 98.4229ZM304.108 108.722L304.108 138.272L296.34 138.272L296.34 108.722L304.108 108.722ZM324.745 108.722L324.745 138.272L316.977 138.272L316.977 108.722L324.745 108.722ZM338.921 121.17L347.272 121.17L347.272 133.101C347.272 134.474 346.114 135.587 344.683 135.587L338.921 135.587L338.921 121.17ZM356.126 142.875L351.43 142.875L351.43 150.328L359.736 150.328C364.025 150.328 367.503 146.991 367.503 142.875L367.503 101.236L365.073 101.236L359.736 101.236L339.077 101.236L339.077 98.5431L331.377 98.5431L331.377 104.974C331.215 106.974 329.543 108.558 327.428 108.605L327.428 116.076C327.661 116.091 327.883 116.145 328.121 116.145C329.174 116.145 330.179 115.953 331.152 115.684L331.152 160.447L331.152 163.896L331.152 167.87L355.898 167.87C362.296 167.87 367.503 162.875 367.503 156.736L367.503 153.704L359.767 153.704L359.767 156.736C359.767 158.783 358.032 160.447 355.898 160.447L338.921 160.447L338.921 143.04L347.272 143.04C351.565 143.04 355.04 139.703 355.04 135.587L355.04 113.718L335.065 113.718C336.721 112.418 337.969 110.689 338.6 108.689L359.736 108.689L359.736 139.413C359.736 141.325 358.119 142.875 356.126 142.875ZM187.34 101.095L187.34 156.559C187.34 162.593 182.332 167.505 176.087 167.681L175.747 167.685L168.044 167.685L168.044 160.268L174.83 160.268C176.842 160.268 178.498 157.918 178.679 154.916L178.695 154.581L178.695 101.095L187.34 101.095ZM169.908 113.541C169.677 132.891 162.015 149.092 149.143 160.475L149.143 150.235C157.049 141.158 161.915 127.543 161.89 113.541L169.908 113.541ZM204.429 113.541C204.405 127.543 209.271 141.158 217.177 150.235L217.177 160.651C204.305 149.269 196.459 132.891 196.228 113.541L204.429 113.541ZM112.758 143.22L112.758 148.164L140.464 148.164L140.464 155.584L112.758 155.584L112.758 160.528L144.332 160.528L144.332 167.948L73.4529 167.948L73.4529 160.528L105.025 160.528L105.025 155.584L77.3213 155.584L77.3213 148.164L105.025 148.164L105.025 143.22L112.758 143.22ZM106.961 101.184L106.961 109.837C106.961 115.916 101.882 120.854 95.5765 120.965L86.6263 120.965L86.6263 113.548L95.3612 113.548C97.4486 113.548 99.1483 111.962 99.2266 109.977L99.2299 109.837L99.2299 108.604L83.8527 108.604L83.7966 124.673L106.961 124.673L106.961 133.329C106.961 139.366 101.953 144.277 95.7044 144.451L95.3612 144.457L83.7623 144.457L83.7623 130.198C83.4472 135.331 79.0609 139.408 73.6576 139.509L73.4548 139.513L73.4548 132.093C74.8431 132.093 75.9755 131.048 76.0504 129.731L76.0535 129.609L76.144 101.184L106.961 101.184ZM130.158 98.7109L130.158 103.658L143.041 103.658L143.041 111.075L140.465 111.075L140.465 113.751C140.44 114.981 140.209 116.16 139.807 117.259L144.333 117.256L144.333 124.675L130.158 124.675L130.158 129.62L143.041 129.62L143.041 137.039L130.158 137.039L130.158 144.456L122.424 144.456L122.424 137.039L109.537 137.039L109.537 129.62L122.424 129.62L122.424 124.675L108.248 124.675L108.248 117.256L112.775 117.259C112.369 116.16 112.138 114.981 112.116 113.751L112.116 111.075L109.537 111.075L109.537 103.658L122.424 103.658L122.424 98.7109L130.158 98.7109ZM99.2299 132.093L91.4959 132.093L91.4959 137.037L95.3612 137.037C97.3738 137.037 99.0272 135.565 99.2114 133.679L99.2266 133.467L99.2299 133.329L99.2299 132.093ZM132.735 111.075L119.847 111.075L119.847 113.547C119.847 115.55 121.497 117.181 123.568 117.256L129.012 117.256C131.006 117.184 132.616 115.667 132.725 113.76L132.735 113.547L132.735 111.075ZM25.7718 130.855L42.5245 130.855L42.5245 123.435L25.7718 123.435L25.7718 130.855ZM50.2583 123.439L57.9889 123.439L57.9889 156.82L57.9858 156.96L57.9733 157.17C57.7892 159.053 56.1358 160.528 54.1236 160.528L50.2583 160.528L50.2583 123.439ZM25.7718 145.691L42.5245 145.691L42.5245 138.272L25.7718 138.272L25.7718 145.691ZM25.7718 160.528L42.5245 160.528L42.5245 153.109L25.7718 153.109L25.7718 160.528ZM10.3106 160.528L18.0443 160.528L18.0443 123.439L10.3106 123.439L10.3106 160.528ZM30.2766 112.523C30.1643 114.429 28.5577 115.947 26.5642 116.019L26.4176 116.019L2.57998 116.019L2.57998 167.948L54.1236 167.948L54.4667 167.942C60.7124 167.769 65.7226 162.854 65.7226 156.82L65.7226 116.019L37.3553 116.021C37.7608 114.924 37.9917 113.744 38.0135 112.514L38.0167 112.31L38.0167 108.602L68.2995 108.602L68.2995 101.186L0 101.186L0 108.602L30.2829 108.602L30.2829 112.31L30.2766 112.523ZM291.056 101.236L291.056 103.381L291.087 103.381L291.087 158.755C291.087 163.849 286.785 167.977 281.478 167.977L275.008 167.977L275.008 160.524L280.723 160.524C282.155 160.524 283.319 159.411 283.319 158.037L283.319 108.688L256.274 108.688L256.274 167.539L248.503 167.539L248.503 101.236L291.056 101.236ZM266.575 110.984C266.566 117.765 267.685 124.437 269.661 130.624C271.636 124.437 272.755 117.765 272.742 110.984L280.816 110.984C280.683 122.115 278.318 132.135 274.007 140.908C275.759 144.119 277.759 147.094 280.024 149.692L280.024 160.123C276.047 156.606 272.59 152.674 269.661 148.373C266.731 152.674 263.274 156.606 259.297 160.123L259.297 149.692C261.559 147.094 263.562 144.119 265.312 140.908C261 132.135 258.638 122.115 258.507 110.984L266.575 110.984ZM233.975 98.4213L226.276 98.4213L226.276 104.85C226.114 106.852 224.442 108.436 222.33 108.484L222.33 115.954C222.564 115.969 222.785 116.021 223.022 116.021C226.248 116.021 229.156 114.635 231.18 112.479L245.889 112.479L245.889 105.03L233.975 105.03L233.975 98.4213ZM237.744 127.065L244.523 127.065L244.523 119.613L223.231 119.613L223.231 127.065L230.01 127.065L230.01 136.096L222.33 136.096L222.33 143.548L230.01 143.548L230.01 156.412C230.01 162.446 235.02 167.36 241.269 167.534L241.609 167.537L245.484 167.537L245.484 160.121L241.609 160.121C239.6 160.121 237.943 157.771 237.763 154.772L237.747 154.436L237.744 154.212L237.744 143.548L245.484 143.548L245.484 136.096L237.744 136.096L237.744 127.065ZM265.172 183.058C272.393 183.058 278.537 184.764 283.635 188.168L284.163 188.527C288.695 191.679 292.369 195.893 295.187 201.181L295.292 201.383L280.805 207.571L280.643 207.258C279.096 204.347 277.017 202.078 274.407 200.473C271.417 198.635 267.971 197.716 264.097 197.716C259.839 197.716 256.016 198.872 252.661 201.177C249.327 203.467 246.739 206.674 244.901 210.776C243.08 214.842 242.171 219.428 242.171 224.526C242.171 229.759 243.078 234.463 244.897 238.629C246.732 242.832 249.316 246.126 252.647 248.486C256.004 250.865 259.833 252.059 264.097 252.059C267.765 252.059 271.092 251.118 274.045 249.241L274.503 248.941C276.924 247.306 279.026 245.102 280.809 242.336L280.919 242.161L295.506 248.391L295.409 248.576C292.401 254.19 288.332 258.553 283.193 261.685C277.689 265.039 271.367 266.717 264.204 266.717C256.609 266.717 249.874 264.935 243.974 261.372C238.068 257.806 233.466 252.841 230.156 246.458C226.836 240.053 225.173 232.747 225.173 224.526C225.173 216.449 226.852 209.267 230.204 202.968C233.546 196.69 238.233 191.811 244.278 188.311C250.324 184.811 257.281 183.058 265.172 183.058ZM165.308 204.511C171.359 204.511 175.993 206.358 179.306 210.05L179.597 210.383C182.749 214.094 184.342 219.346 184.342 226.177L184.342 265.273L168.526 265.273L168.527 230.2C168.527 226.782 167.615 224.026 165.766 221.982C163.885 219.904 161.301 218.86 158.105 218.86C154.429 218.86 151.415 219.99 149.142 222.247L148.876 222.521C146.786 224.745 145.748 227.701 145.748 231.334L145.748 265.273L129.932 265.273L129.932 205.955L145.748 205.955L145.748 214.001L148.125 214.001L148.469 213.456C150.23 210.661 152.541 208.477 155.414 206.888C158.275 205.305 161.567 204.511 165.308 204.511ZM211.414 205.955L211.414 265.273L195.599 265.273L195.599 205.955L211.414 205.955ZM117.693 205.955L117.693 265.273L101.877 265.273L101.877 205.955L117.693 205.955ZM15.9673 184.502L43.1396 224.116L43.4881 224.624L45.4012 224.624L45.7497 224.116L72.9211 184.502L87.882 184.502L87.882 265.273L71.959 265.273L71.9597 215.869L69.5131 215.869L69.1634 216.366L50.8063 242.479L38.0739 242.479L19.6118 216.77L19.2612 216.282L16.8221 216.282L16.8212 265.273L1.006 265.273L1.006 184.502L15.9673 184.502ZM468.139 218.524L468.139 265.273L452.323 265.273L452.323 236.182L468.139 218.524ZM335.261 184.502C341.976 184.502 347.79 185.621 352.712 187.849C357.596 190.06 361.326 193.212 363.927 197.317C366.534 201.431 367.841 206.264 367.841 211.84C367.841 217.42 366.568 222.24 364.03 226.32C361.497 230.393 357.889 233.526 353.181 235.736C348.441 237.959 342.83 239.076 336.336 239.076L321.614 239.076L321.613 265.273L305.152 265.273L305.152 184.502L335.261 184.502ZM392.869 184.502L418.651 213.83L406.595 226.965L396.31 216.631L395.963 216.282L393.638 216.282L393.637 265.273L377.821 265.273L377.821 184.502L392.869 184.502ZM332.465 198.644L321.614 198.644L321.614 224.933L332.465 224.933C338.07 224.933 342.536 223.808 345.839 221.523C349.229 219.178 350.95 215.914 350.95 211.84C350.95 207.769 349.232 204.491 345.846 202.111C342.542 199.789 338.072 198.644 332.465 198.644ZM117.693 181.03L117.693 196.203L101.877 196.203L101.877 181.03L117.693 181.03ZM211.288 181.03L211.288 196.203L195.472 196.203L195.472 181.03L211.288 181.03Z" fill-rule="evenodd"  fill="#373ED8" >
</path>
<path d="M425.993 246.789L433.947 236.618L423.246 246.89L431.913 235.959L420.356 247.143L430.021 235.15L417.886 246.384L427.685 233.682L414.553 245.979L425.635 231.911L413.492 242.588L423.869 229.836L412.447 240.31L422.832 228.115L412.7 237.78L422.23 226.496L412.518 235.149L424.574 221.03L439.221 233.682L425.993 246.789Z"   fill="#373ED8" >
</path>
</svg>
